<?xml version="1.0" encoding="utf-8"?>
<!-- Generator: Adobe Illustrator 16.0.0, SVG Export Plug-In . SVG Version: 6.00 Build 0)  -->
<!DOCTYPE svg PUBLIC "-//W3C//DTD SVG 1.0//EN" "http://www.w3.org/TR/2001/REC-SVG-20010904/DTD/svg10.dtd">
<svg version="1.0" id="Layer_1" xmlns="http://www.w3.org/2000/svg" xmlns:xlink="http://www.w3.org/1999/xlink" x="0px" y="0px"
	 width="100px" height="100px" viewBox="0 0 100 100" enable-background="new 0 0 100 100" xml:space="preserve">
<path d="M83.333,23.333h-20v-6.667c0-3.665-3.001-6.667-6.666-6.667h-40C13.001,10,10,13.001,10,16.667v66.667
	C10,86.999,13.001,90,16.667,90h40c3.665,0,6.666-3.001,6.666-6.667V70H16.667V16.667h40v6.667h-20C33,23.333,30,26.333,30,30
	v26.667c0,3.665,3,6.666,6.667,6.666h46.667c3.666,0,6.667-3.001,6.667-6.666V30C90,26.333,86.999,23.333,83.333,23.333z
	 M36.667,76.667C38.509,76.667,40,78.161,40,80s-1.491,3.333-3.333,3.333c-1.842,0-3.333-1.494-3.333-3.333
	S34.824,76.667,36.667,76.667z M83.333,30v5H36.667v-5H83.333z M36.667,56.667V40h46.667v16.667H36.667z"/>
<rect x="41.667" y="46.667" width="16.667" height="5"/>
<rect x="71.667" y="46.667" width="6.666" height="5"/>
</svg>
